<?xml version="1.0" standalone="no"?>
<svg xmlns="http://www.w3.org/2000/svg" width="189.6030581039755" height="62.923058103975535" viewBox="0 0 189.6030581039755 62.923058103975535"><g fill="#e96b3d" color="#e96b3d" transform="translate(0 0) scale(0.6292306)"><svg width="100.0" height="100.0" x="0.0" y="0.0" viewBox="0 0 100 100"><rect x="0" y="56" width="78" height="8"></rect><rect y="75" width="3" height="6"></rect><rect x="0" y="74" width="78" height="3"></rect><rect x="75" y="75" width="3" height="6"></rect><rect y="79" width="78" height="3"></rect><path d="M78,82.164V74.28c0,0,1.538-2.535,4.651-3.153c7.937-1.577,10.46,1.577,12.643,3.153c1.034,0.747,4.706,3.153,4.706,3.153  v1.577c0,0-3.727,2.406-4.762,3.153c-2.183,1.577-4.651,4.73-12.587,3.153C79.538,84.699,78,82.164,78,82.164z"></path><path d="M78,64.164V56.28c0,0,1.538-2.535,4.651-3.153c7.937-1.577,10.46,1.577,12.643,3.153c1.034,0.747,4.706,3.153,4.706,3.153  v1.577c0,0-3.727,2.406-4.762,3.153c-2.183,1.577-4.651,4.73-12.587,3.153C79.538,66.699,78,64.164,78,64.164z"></path><rect y="10" width="6" height="40"></rect><rect x="10" y="10" width="6" height="40"></rect><rect x="84" y="21" width="6" height="17"></rect><rect x="84" y="18" width="16" height="5"></rect><rect x="84" y="35" width="16" height="6"></rect><rect x="94" y="21" width="6" height="17"></rect><polygon points="88.103,24.858 84.664,29.333 66.341,14.515 69.781,10.041 "></polygon><polygon points="88.103,35.028 84.664,30.553 66.341,45.371 69.781,49.845 "></polygon><path d="M70,50h-5.556c0,0-4.469-15.371-4.444-20.57C60.023,24.512,64.444,10,64.444,10H70c0,0-4.422,14.512-4.444,19.43  C65.531,34.629,70,50,70,50z"></path><rect x="6" y="44" width="62" height="6"></rect><rect x="6" y="10" width="62" height="6"></rect></svg></g><path fill="#cc3f0c" fill-rule="nonzero" d="M6.60 2.72L5.08 2.84Q4.80 6.08 4.80 12.88Q4.80 19.68 5.16 23.88L5.16 23.88L6.60 24Q6.68 24.64 6.68 25.10Q6.68 25.56 6.56 26.24L6.56 26.24Q5.16 26.20 3.32 26.20Q1.48 26.20 0.12 26.24L0.12 26.24Q0 25.64 0 25.18Q0 24.72 0.08 24L0.08 24L1.48 23.88Q1.80 19.56 1.80 12.86Q1.80 6.16 1.44 2.84L1.44 2.84L0.08 2.72Q0 2.08 0 1.62Q0 1.16 0.12 0.48L0.12 0.48Q1.52 0.52 3.36 0.52Q5.20 0.52 6.56 0.48L6.56 0.48Q6.68 1.08 6.68 1.54Q6.68 2 6.60 2.72L6.60 2.72ZM11.88 13.12L11.88 13.12Q11.88 0 21.70 0Q31.52 0 31.52 13.12L31.52 13.12Q31.52 15.52 31.34 17.32Q31.16 19.12 30.54 21Q29.92 22.88 28.88 24.08Q27.84 25.28 26.02 26.04Q24.20 26.80 21.70 26.80Q19.20 26.80 17.38 26.04Q15.56 25.28 14.52 24.08Q13.48 22.88 12.86 21Q12.24 19.12 12.06 17.32Q11.88 15.52 11.88 13.12ZM18.32 22.96L18.32 22.96Q19.68 23.84 21.70 23.84Q23.72 23.84 25.10 22.96Q26.48 22.08 27.16 20.44L27.16 20.44Q28.36 17.60 28.36 13.16L28.36 13.16Q28.36 2.36 21.70 2.36Q15.04 2.36 15.04 13.16L15.04 13.16Q15.04 20.88 18.32 22.96ZM39.88 2.92Q39.76 2.44 39.76 1.68Q39.76 0.92 39.80 0.68L39.80 0.68Q43.32 0.24 45.04 0.24Q46.76 0.24 47.96 0.64L47.96 0.64Q48.92 8.16 54.64 23.88L54.64 23.88L56.12 24Q56.20 24.88 56.20 25.22Q56.20 25.56 56.08 26.24L56.08 26.24Q54.96 26.20 52.60 26.20Q50.24 26.20 49.32 26.24L49.32 26.24Q49.20 25.64 49.20 25.10Q49.20 24.56 49.28 24L49.28 24L50.68 23.88Q50.48 22.92 50.04 21.10Q49.60 19.28 49.56 19.08L49.56 19.08Q47.28 18.96 44.62 18.96Q41.96 18.96 39.64 19.12L39.64 19.12L38.52 23.88L40.04 24Q40.12 24.88 40.12 25.22Q40.12 25.56 40 26.24L40 26.24Q39.04 26.20 36.86 26.20Q34.68 26.20 33.80 26.24L33.80 26.24Q33.68 25.64 33.68 25.10Q33.68 24.56 33.76 24L33.76 24L35.16 23.88Q39.96 10.72 41.48 3.04L41.48 3.04L39.88 2.92ZM40.36 16.32L40.36 16.32Q41.72 16.36 44.44 16.36Q47.16 16.36 48.84 16.24L48.84 16.24Q46.96 9.12 44.88 3.08L44.88 3.08L44.64 3.08Q42.28 8.80 40.36 16.32ZM75.48 20.40L75.48 20.40Q75.60 17.04 75.60 11.60Q75.60 6.16 75.24 2.84L75.24 2.84L73.76 2.72Q73.68 2.08 73.68 1.62Q73.68 1.16 73.80 0.48L73.80 0.48Q75.08 0.52 76.74 0.52Q78.40 0.52 79.64 0.48L79.64 0.48Q79.76 1.08 79.76 1.54Q79.76 2 79.68 2.72L79.68 2.72L78.28 2.84Q78 6.08 78 15.02Q78 23.96 78.68 26.12L78.68 26.12Q77.48 26.52 76.94 26.52Q76.40 26.52 75.04 26.44L75.04 26.44Q74.76 25.20 72.68 21.94Q70.60 18.68 67.50 14.16Q64.40 9.64 63.04 7.40L63.04 7.40Q63 9.12 63 14.40Q63 19.68 63.36 23.88L63.36 23.88L64.84 24Q64.92 24.64 64.92 25.10Q64.92 25.56 64.80 26.24L64.80 26.24Q63.52 26.20 61.84 26.20Q60.16 26.20 58.92 26.24L58.92 26.24Q58.80 25.64 58.80 25.18Q58.80 24.72 58.88 24L58.88 24L60.28 23.88Q60.60 19.56 60.60 12.94Q60.60 6.32 60.24 3.04L60.24 3.04L58.68 2.92Q58.56 2.36 58.56 1.68Q58.56 1 58.60 0.68L58.60 0.68Q62 0.60 63.64 0.48L63.64 0.48Q64.40 3.36 67.96 9.12Q71.52 14.88 75.48 20.40ZM88.32 2.92Q88.20 2.44 88.20 1.68Q88.20 0.92 88.24 0.68L88.24 0.68Q91.76 0.24 93.48 0.24Q95.20 0.24 96.40 0.64L96.40 0.64Q97.36 8.16 103.08 23.88L103.08 23.88L104.56 24Q104.64 24.88 104.64 25.22Q104.64 25.56 104.52 26.24L104.52 26.24Q103.40 26.20 101.04 26.20Q98.68 26.20 97.76 26.24L97.76 26.24Q97.64 25.64 97.64 25.10Q97.64 24.56 97.72 24L97.72 24L99.12 23.88Q98.92 22.92 98.48 21.10Q98.04 19.28 98 19.08L98 19.08Q95.72 18.96 93.06 18.96Q90.40 18.96 88.08 19.12L88.08 19.12L86.96 23.88L88.48 24Q88.56 24.88 88.56 25.22Q88.56 25.56 88.44 26.24L88.44 26.24Q87.48 26.20 85.30 26.20Q83.12 26.20 82.24 26.24L82.24 26.24Q82.12 25.64 82.12 25.10Q82.12 24.56 82.20 24L82.20 24L83.60 23.88Q88.40 10.72 89.92 3.04L89.92 3.04L88.32 2.92ZM88.80 16.32L88.80 16.32Q90.16 16.36 92.88 16.36Q95.60 16.36 97.28 16.24L97.28 16.24Q95.40 9.12 93.32 3.08L93.32 3.08L93.08 3.08Q90.72 8.80 88.80 16.32Z" transform="translate(77.924 0) scale(1.068)"></path><path fill="#cc3f0c" fill-rule="nonzero" d="M6.60 2.72L5.08 2.84Q4.80 6.08 4.80 12.88Q4.80 19.68 5.16 23.88L5.16 23.88L6.60 24Q6.68 24.64 6.68 25.10Q6.68 25.56 6.56 26.24L6.56 26.24Q5.16 26.20 3.32 26.20Q1.48 26.20 0.12 26.24L0.12 26.24Q0 25.64 0 25.18Q0 24.72 0.08 24L0.08 24L1.48 23.88Q1.80 19.56 1.80 12.86Q1.80 6.16 1.44 2.84L1.44 2.84L0.08 2.72Q0 2.08 0 1.62Q0 1.16 0.12 0.48L0.12 0.48Q1.52 0.52 3.36 0.52Q5.20 0.52 6.56 0.48L6.56 0.48Q6.68 1.08 6.68 1.54Q6.68 2 6.60 2.72L6.60 2.72ZM19.64 12.24L19.64 12.24Q20.80 13.32 22.58 13.32Q24.36 13.32 25.50 11.82Q26.64 10.32 26.64 7.84L26.64 7.84Q26.64 2.28 21.36 2.28L21.36 2.28Q19.56 2.28 17.60 3.08L17.60 3.08Q17.32 6.56 17.32 12.96Q17.32 19.36 17.68 23.88L17.68 23.88L19.16 24Q19.24 24.88 19.24 25.22Q19.24 25.56 19.12 26.24L19.12 26.24Q17.96 26.20 15.72 26.20Q13.48 26.20 12.64 26.24L12.64 26.24Q12.52 25.64 12.52 25.10Q12.52 24.56 12.60 24L12.60 24L14 23.88Q14.32 19.48 14.32 12.84Q14.32 6.20 13.92 3.04L13.92 3.04L12.40 2.92Q12.28 2.44 12.28 1.68Q12.28 0.92 12.32 0.68L12.32 0.68Q15 0.60 17.04 0.30Q19.08 0 21.40 0L21.40 0Q30.12 0 30.12 7.84L30.12 7.84Q30.12 11.00 28.56 13.04Q27 15.08 24.20 15.60L24.20 15.60Q28.16 21.88 29.68 23.68L29.68 23.68L31.56 23.80Q31.64 24.44 31.64 24.98Q31.64 25.52 31.52 26.12L31.52 26.12Q27.88 26.24 26.44 26.32L26.44 26.32L26.28 25.88Q25.60 24.20 24.62 22.38Q23.64 20.56 20.52 15.68L20.52 15.68Q19.68 15.64 18.80 15.24L18.80 15.24Q18.80 14.44 19.06 13.50Q19.32 12.56 19.64 12.24ZM41.84 2.72L40.32 2.84Q40.04 6.08 40.04 12.88Q40.04 19.68 40.40 23.88L40.40 23.88L41.84 24Q41.92 24.64 41.92 25.10Q41.92 25.56 41.80 26.24L41.80 26.24Q40.40 26.20 38.56 26.20Q36.72 26.20 35.36 26.24L35.36 26.24Q35.24 25.64 35.24 25.18Q35.24 24.72 35.32 24L35.32 24L36.72 23.88Q37.04 19.56 37.04 12.86Q37.04 6.16 36.68 2.84L36.68 2.84L35.32 2.72Q35.24 2.08 35.24 1.62Q35.24 1.16 35.36 0.48L35.36 0.48Q36.76 0.52 38.60 0.52Q40.44 0.52 41.80 0.48L41.80 0.48Q41.92 1.08 41.92 1.54Q41.92 2 41.84 2.72L41.84 2.72ZM73.52 0.68Q73.56 1 73.56 1.68Q73.56 2.36 73.44 2.92L73.44 2.92L71.92 3.04Q71.88 4.16 71.88 6.36L71.88 6.36Q71.88 16.16 72.76 23.88L72.76 23.88L74.24 24Q74.32 24.64 74.32 25.10Q74.32 25.56 74.20 26.24L74.20 26.24Q72.80 26.20 70.96 26.20Q69.12 26.20 67.76 26.24L67.76 26.24Q67.64 25.64 67.64 25.18Q67.64 24.72 67.72 24L67.72 24L69.04 23.88Q69.12 21 69.12 17.30Q69.12 13.60 68.76 7L68.76 7Q68.36 7.84 66.76 11.08L66.76 11.08Q63.20 18.16 61.88 21.52L61.88 21.52Q61.08 21.84 60.18 21.84Q59.28 21.84 58.96 21.80L58.96 21.80Q57.56 18.44 54.98 13.66Q52.40 8.88 51.92 8L51.92 8Q51.60 13.68 51.60 17.62Q51.60 21.56 51.68 23.88L51.68 23.88L53.16 24Q53.24 24.64 53.24 25.10Q53.24 25.56 53.12 26.24L53.12 26.24Q51.84 26.20 50.16 26.20Q48.48 26.20 47.24 26.24L47.24 26.24Q47.12 25.64 47.12 25.18Q47.12 24.72 47.20 24L47.20 24L48.60 23.88Q49.44 16.60 49.44 6.64L49.44 6.64Q49.44 4.72 49.32 3.04L49.32 3.04L47.84 2.92Q47.72 2.36 47.72 1.68Q47.72 1 47.76 0.68L47.76 0.68Q51.04 0.60 52.72 0.48L52.72 0.48Q53.40 4.16 60.80 17.80L60.80 17.80Q66.92 5.84 67.96 0.48L67.96 0.48Q69.44 0.60 73.52 0.68L73.52 0.68ZM86.12 2.72L84.60 2.84Q84.32 6.08 84.32 12.88Q84.32 19.68 84.68 23.88L84.68 23.88L86.12 24Q86.20 24.64 86.20 25.10Q86.20 25.56 86.08 26.24L86.08 26.24Q84.68 26.20 82.84 26.20Q81 26.20 79.64 26.24L79.64 26.24Q79.52 25.64 79.52 25.18Q79.52 24.72 79.60 24L79.60 24L81 23.88Q81.32 19.56 81.32 12.86Q81.32 6.16 80.96 2.84L80.96 2.84L79.60 2.72Q79.52 2.08 79.52 1.62Q79.52 1.16 79.64 0.48L79.64 0.48Q81.04 0.52 82.88 0.52Q84.72 0.52 86.08 0.48L86.08 0.48Q86.20 1.08 86.20 1.54Q86.20 2 86.12 2.72L86.12 2.72ZM95.36 2.92Q95.24 2.44 95.24 1.68Q95.24 0.92 95.28 0.68L95.28 0.68Q98.80 0.24 100.52 0.24Q102.24 0.24 103.44 0.64L103.44 0.64Q104.40 8.16 110.12 23.88L110.12 23.88L111.60 24Q111.68 24.88 111.68 25.22Q111.68 25.56 111.56 26.24L111.56 26.24Q110.44 26.20 108.08 26.20Q105.72 26.20 104.80 26.24L104.80 26.24Q104.68 25.64 104.68 25.10Q104.68 24.56 104.76 24L104.76 24L106.16 23.88Q105.96 22.92 105.52 21.10Q105.08 19.28 105.04 19.08L105.04 19.08Q102.76 18.96 100.10 18.96Q97.44 18.96 95.12 19.12L95.12 19.12L94.00 23.88L95.52 24Q95.60 24.88 95.60 25.22Q95.60 25.56 95.48 26.24L95.48 26.24Q94.52 26.20 92.34 26.20Q90.16 26.20 89.28 26.24L89.28 26.24Q89.16 25.64 89.16 25.10Q89.16 24.56 89.24 24L89.24 24L90.64 23.88Q95.44 10.72 96.96 3.04L96.96 3.04L95.36 2.92ZM95.84 16.32L95.84 16.32Q97.20 16.36 99.92 16.36Q102.64 16.36 104.32 16.24L104.32 16.24Q102.44 9.12 100.36 3.08L100.36 3.08L100.12 3.08Q97.76 8.80 95.84 16.32Z" transform="translate(77.924 36.604) scale(1)"></path></svg>